REM DIRINDEX 1\2,1\3,1\4
REM DIRNAME cjc151,folder01,folder02,folder03
TITLE ""
FILE "129 129_TOEFL_3900.mp3" MP3
  TRACK 01 AUDIO
    TITLE "2:cjc151_5602"
    INDEX 01 00:00:00
  TRACK 02 AUDIO
    TITLE "0:"
    INDEX 01 00:01:28
  TRACK 03 AUDIO
    TITLE "3:cjc151_5603"
    INDEX 01 00:03:08
  TRACK 04 AUDIO
    TITLE "0:"
    INDEX 01 00:06:69
  TRACK 05 AUDIO
    TITLE "2:cjc151_5604"
    INDEX 01 00:08:48
  TRACK 06 AUDIO
    TITLE "0:"
    INDEX 01 00:09:55
  TRACK 07 AUDIO
    TITLE "3:cjc151_5605"
    INDEX 01 00:11:35
  TRACK 08 AUDIO
    TITLE "0:"
    INDEX 01 00:14:47
  TRACK 09 AUDIO
    TITLE "2:cjc151_5606"
    INDEX 01 00:16:26
  TRACK 10 AUDIO
    TITLE "0:"
    INDEX 01 00:17:39
  TRACK 11 AUDIO
    TITLE "3:cjc151_5607"
    INDEX 01 00:19:18
  TRACK 12 AUDIO
    TITLE "0:"
    INDEX 01 00:23:71
  TRACK 13 AUDIO
    TITLE "2:cjc151_5608"
    INDEX 01 00:25:50
  TRACK 14 AUDIO
    TITLE "0:"
    INDEX 01 00:26:69
  TRACK 15 AUDIO
    TITLE "3:cjc151_5609"
    INDEX 01 00:28:49
  TRACK 16 AUDIO
    TITLE "0:"
    INDEX 01 00:32:66
  TRACK 17 AUDIO
    TITLE "2:cjc151_5610"
    INDEX 01 00:34:45
  TRACK 18 AUDIO
    TITLE "0:"
    INDEX 01 00:35:68
  TRACK 19 AUDIO
    TITLE "3:cjc151_5611"
    INDEX 01 00:37:48
  TRACK 20 AUDIO
    TITLE "0:"
    INDEX 01 00:42:10
  TRACK 21 AUDIO
    TITLE "2:cjc151_5612"
    INDEX 01 00:43:62
  TRACK 22 AUDIO
    TITLE "0:"
    INDEX 01 00:45:00
  TRACK 23 AUDIO
    TITLE "3:cjc151_5613"
    INDEX 01 00:46:53
  TRACK 24 AUDIO
    TITLE "0:"
    INDEX 01 00:50:42
  TRACK 25 AUDIO
    TITLE "2:cjc151_5614"
    INDEX 01 00:52:24
  TRACK 26 AUDIO
    TITLE "0:"
    INDEX 01 00:53:31
  TRACK 27 AUDIO
    TITLE "3:cjc151_5615"
    INDEX 01 00:55:10
  TRACK 28 AUDIO
    TITLE "0:"
    INDEX 01 00:59:04
  TRACK 29 AUDIO
    TITLE "2:cjc151_5616"
    INDEX 01 01:00:59
  TRACK 30 AUDIO
    TITLE "0:"
    INDEX 01 01:01:72
  TRACK 31 AUDIO
    TITLE "3:cjc151_5617"
    INDEX 01 01:03:57
  TRACK 32 AUDIO
    TITLE "0:"
    INDEX 01 01:07:74
  TRACK 33 AUDIO
    TITLE "2:cjc151_5618"
    INDEX 01 01:09:54
  TRACK 34 AUDIO
    TITLE "0:"
    INDEX 01 01:10:59
  TRACK 35 AUDIO
    TITLE "3:cjc151_5619"
    INDEX 01 01:12:38
  TRACK 36 AUDIO
    TITLE "0:"
    INDEX 01 01:15:60
  TRACK 37 AUDIO
    TITLE "2:cjc151_5620"
    INDEX 01 01:17:37
  TRACK 38 AUDIO
    TITLE "0:"
    INDEX 01 01:18:54
  TRACK 39 AUDIO
    TITLE "3:cjc151_5621"
    INDEX 01 01:20:32
  TRACK 40 AUDIO
    TITLE "0:"
    INDEX 01 01:25:57
  TRACK 41 AUDIO
    TITLE "2:cjc151_5622"
    INDEX 01 01:27:34
  TRACK 42 AUDIO
    TITLE "0:"
    INDEX 01 01:28:33
  TRACK 43 AUDIO
    TITLE "3:cjc151_5623"
    INDEX 01 01:30:13
  TRACK 44 AUDIO
    TITLE "0:"
    INDEX 01 01:34:06
  TRACK 45 AUDIO
    TITLE "2:cjc151_5624"
    INDEX 01 01:35:61
  TRACK 46 AUDIO
    TITLE "0:"
    INDEX 01 01:36:60
  TRACK 47 AUDIO
    TITLE "3:cjc151_5625"
    INDEX 01 01:38:42
  TRACK 48 AUDIO
    TITLE "0:"
    INDEX 01 01:43:21
  TRACK 49 AUDIO
    TITLE "2:cjc151_5626"
    INDEX 01 01:45:00
  TRACK 50 AUDIO
    TITLE "0:"
    INDEX 01 01:46:10
  TRACK 51 AUDIO
    TITLE "3:cjc151_5627"
    INDEX 01 01:47:62
  TRACK 52 AUDIO
    TITLE "0:"
    INDEX 01 01:51:56
  TRACK 53 AUDIO
    TITLE "2:cjc151_5628"
    INDEX 01 01:53:35
  TRACK 54 AUDIO
    TITLE "0:"
    INDEX 01 01:54:54
  TRACK 55 AUDIO
    TITLE "3:cjc151_5629"
    INDEX 01 01:56:36
  TRACK 56 AUDIO
    TITLE "0:"
    INDEX 01 02:01:27
  TRACK 57 AUDIO
    TITLE "2:cjc151_5630"
    INDEX 01 02:03:06
  TRACK 58 AUDIO
    TITLE "0:"
    INDEX 01 02:04:17
  TRACK 59 AUDIO
    TITLE "3:cjc151_5631"
    INDEX 01 02:05:70
  TRACK 60 AUDIO
    TITLE "0:"
    INDEX 01 02:10:42
  TRACK 61 AUDIO
    TITLE "2:cjc151_5632"
    INDEX 01 02:12:21
  TRACK 62 AUDIO
    TITLE "0:"
    INDEX 01 02:13:30
  TRACK 63 AUDIO
    TITLE "3:cjc151_5633"
    INDEX 01 02:15:09
  TRACK 64 AUDIO
    TITLE "0:"
    INDEX 01 02:19:56
  TRACK 65 AUDIO
    TITLE "2:cjc151_5634"
    INDEX 01 02:21:33
  TRACK 66 AUDIO
    TITLE "0:"
    INDEX 01 02:22:35
  TRACK 67 AUDIO
    TITLE "3:cjc151_5635"
    INDEX 01 02:24:16
  TRACK 68 AUDIO
    TITLE "0:"
    INDEX 01 02:28:02
  TRACK 69 AUDIO
    TITLE "2:cjc151_5636"
    INDEX 01 02:29:57
  TRACK 70 AUDIO
    TITLE "0:"
    INDEX 01 02:30:70
  TRACK 71 AUDIO
    TITLE "3:cjc151_5637"
    INDEX 01 02:32:47
  TRACK 72 AUDIO
    TITLE "0:"
    INDEX 01 02:36:53
  TRACK 73 AUDIO
    TITLE "2:cjc151_5638"
    INDEX 01 02:38:30
  TRACK 74 AUDIO
    TITLE "0:"
    INDEX 01 02:39:35
  TRACK 75 AUDIO
    TITLE "3:cjc151_5639"
    INDEX 01 02:41:13
  TRACK 76 AUDIO
    TITLE "0:"
    INDEX 01 02:45:42
  TRACK 77 AUDIO
    TITLE "2:cjc151_5640"
    INDEX 01 02:47:21
  TRACK 78 AUDIO
    TITLE "0:"
    INDEX 01 02:48:26
  TRACK 79 AUDIO
    TITLE "3:cjc151_5641"
    INDEX 01 02:50:06
  TRACK 80 AUDIO
    TITLE "0:"
    INDEX 01 02:53:04
  TRACK 81 AUDIO
    TITLE "2:cjc151_5642"
    INDEX 01 02:54:58
  TRACK 82 AUDIO
    TITLE "0:"
    INDEX 01 02:55:66
  TRACK 83 AUDIO
    TITLE "3:cjc151_5643"
    INDEX 01 02:57:43
  TRACK 84 AUDIO
    TITLE "0:"
    INDEX 01 03:01:23
  TRACK 85 AUDIO
    TITLE "2:cjc151_5644"
    INDEX 01 03:03:03
  TRACK 86 AUDIO
    TITLE "0:"
    INDEX 01 03:04:10
  TRACK 87 AUDIO
    TITLE "3:cjc151_5645"
    INDEX 01 03:05:62
  TRACK 88 AUDIO
    TITLE "0:"
    INDEX 01 03:09:66
